<svg width="32" height="32" viewBox="0 0 32 32" fill="none" xmlns="http://www.w3.org/2000/svg">
  <rect width="32" height="32" rx="8" fill="#3B82F6"/>
  <path d="M16 8C12.134 8 9 11.134 9 15C9 18.866 12.134 22 16 22C19.866 22 23 18.866 23 15C23 11.134 19.866 8 16 8ZM16 20C13.239 20 11 17.761 11 15C11 12.239 13.239 10 16 10C18.761 10 21 12.239 21 15C21 17.761 18.761 20 16 20Z" fill="white"/>
  <path d="M16 12C14.343 12 13 13.343 13 15C13 16.657 14.343 18 16 18C17.657 18 19 16.657 19 15C19 13.343 17.657 12 16 12ZM16 16C14.895 16 14 15.105 14 15C14 14.895 14.895 14 16 14C17.105 14 18 14.895 18 15C18 15.105 17.105 16 16 16Z" fill="white"/>
  <rect x="15" y="23" width="2" height="4" rx="1" fill="white"/>
</svg>